<?xml version="1.0" encoding="UTF-8" standalone="no"?>
<!-- Generator: Adobe Illustrator 27.2.0, SVG Export Plug-In . SVG Version: 6.00 Build 0)  -->

<svg
   version="1.1"
   id="레이어_1"
   x="0px"
   y="0px"
   viewBox="0 0 518400 66459.29"
   enable-background="new 0 0 720 257.797"
   xml:space="preserve"
   width="518400"
   height="66459.289"
   xmlns="http://www.w3.org/2000/svg"
   xmlns:svg="http://www.w3.org/2000/svg"><defs
   id="defs19" />
<g
   id="页面-1">
	<g
   id="参考"
   transform="translate(-618,-436)">
		<g
   id="编组"
   transform="translate(618,436)">
			<path
   id="Fill-1"
   fill-rule="evenodd"
   clip-rule="evenodd"
   fill="#128afa"
   d="m 116.727,102.905 h 10.535 l -8.505,14.731 h -10.535 z m -13.238,0 h 10.442 l -8.505,14.731 H 94.983 Z m -62.975,5.408 h 57.148 l -6.782,11.748 h 20.976 C 94.759,148.87 87.063,159.777 78.438,167.608 63.148,181.5 46.801,186.72 18.646,186.72 H 0 l 12.38,-21.444 h 17.341 c 17.712,0 21.911,-0.652 28.499,-4.473 4.676,-2.612 7.947,-5.687 12.107,-11.281 2.553,-3.451 6.37,-9.418 9.492,-14.825 0.7,-1.212 1.614,-2.797 2.813,-5.035 H 28.188 Z" />
			<path
   id="Fill-3"
   fill-rule="evenodd"
   clip-rule="evenodd"
   fill="#128afa"
   d="m 157.923,106.914 h 22.375 l -33.589,58.177 c 4.647,0.185 8.831,-2.703 12.023,-8.391 l 17.009,-29.461 h 20.977 l -17.871,30.952 c -9.682,17.902 -26.045,28.155 -45.04,28.436 H 111.9 Z m -30.277,43.074 c -9.474,16.409 -13.565,21.723 -21.5,27.875 -8.856,6.621 -18.159,9.977 -31.205,11.096 l 12.757,-22.096 c 7.211,-1.026 9.647,-2.982 14.692,-11.561 l 27.936,-48.387 h 22.188 z" />
			<polygon
   id="Fill-5"
   fill-rule="evenodd"
   clip-rule="evenodd"
   fill="#128afa"
   points="265.752,157.538 183.058,157.538 195.224,136.469 277.917,136.469 " />
			<path
   id="Fill-7"
   fill-rule="evenodd"
   clip-rule="evenodd"
   fill="#2B2B2B"
   d="m 258.398,169.101 c 8.296,0 13.026,-0.28 16.403,-1.121 7.896,-2.051 13.996,-6.805 17.499,-13.517 l 8.72,-15.103 h 19.671 c 8.592,-0.187 12.872,-3.075 17.876,-11.746 h -56.776 l 11.304,-19.58 h 80.55 c -11.828,20.325 -18.02,29.274 -24.384,35.614 -10.676,10.257 -22.558,15.01 -38.273,15.105 -5.409,9.043 -8.871,13.424 -14.158,17.9 -8.432,7.178 -17.523,10.814 -30.467,12.4 -4.891,0.56 -10.978,0.932 -16.76,0.932 -0.465,0 -1.863,0 -3.208,-0.095 z"
   style="fill:#ffffff" />
			<path
   id="Fill-9"
   fill-rule="evenodd"
   clip-rule="evenodd"
   fill="#2B2B2B"
   d="m 527.864,140.852 60.681,-20.325 c 10.475,-3.451 12.215,-4.847 18.357,-14.358 h 23.027 c -12.896,20.884 -16.548,23.494 -47.443,34.216 l -28.1,48.667 h -22.745 l 22.662,-39.249 -38.979,12.772 z"
   style="fill:#ffffff" />
			<g
   transform="translate(361.7641,62.8057)"
   id="g2">
				<g
   id="Clip-12">
				</g>
				<defs
   id="defs1"><filter
     id="Adobe_OpacityMaskFilter"
     filterUnits="userSpaceOnUse"
     x="230.97301"
     y="40.098999"
     width="127.263"
     height="83.816002">
						<feColorMatrix
   type="matrix"
   values="1 0 0 0 0  0 1 0 0 0  0 0 1 0 0  0 0 0 1 0"
   id="feColorMatrix1" />
					</filter></defs>
				
					<mask
   maskUnits="userSpaceOnUse"
   x="230.973"
   y="40.099"
   width="127.263"
   height="83.816"
   id="mask-2_00000013873354943404305750000004271803163206140094_">
					<g
   filter="url(#Adobe_OpacityMaskFilter)"
   id="g1">
						
							<polygon
   id="path-1_00000137132101385987679620000012130188838474219437_"
   fill-rule="evenodd"
   clip-rule="evenodd"
   fill="#ffffff"
   points="358.236,123.915 230.973,123.915 230.973,40.099 358.236,40.099 " />
					</g>
				</mask>
				
					<path
   id="Fill-11"
   mask="url(#mask-2_00000013873354943404305750000004271803163206140094_)"
   fill-rule="evenodd"
   clip-rule="evenodd"
   fill="#2B2B2B"
   d="m 347.701,40.099 h 10.535 l -8.505,14.731 h -10.534 z m -13.239,0 h 10.442 L 336.4,54.831 h -10.444 z m -62.973,5.409 h 57.148 l -6.783,11.748 h 20.976 c -17.097,28.809 -24.793,39.716 -33.416,47.547 -15.292,13.893 -31.639,19.113 -59.792,19.113 h -18.647 l 12.38,-21.444 h 17.341 c 17.713,0 21.911,-0.652 28.501,-4.473 4.675,-2.612 7.947,-5.687 12.107,-11.281 2.551,-3.451 6.369,-9.418 9.492,-14.825 0.7,-1.212 1.614,-2.797 2.812,-5.035 h -54.443 z"
   style="fill:#ffffff" />
			</g>
			<polygon
   id="Fill-13"
   fill-rule="evenodd"
   clip-rule="evenodd"
   fill="#2B2B2B"
   points="430.256,157.538 442.422,136.469 383.266,136.469 371.101,157.538 "
   style="fill:#ffffff" />
			<path
   id="Fill-15"
   fill-rule="evenodd"
   clip-rule="evenodd"
   fill="#2B2B2B"
   d="m 474.164,157.225 c -2.61,-0.983 -5.207,-1.989 -7.793,-3.01 -3.269,-1.306 -6.505,-2.664 -9.728,-4.045 -7.566,10.222 -14.884,14.251 -26.743,15.854 l -12.973,22.468 c 25.359,-2.476 41.484,-10.818 57.237,-31.267"
   style="fill:#ffffff" />
			<path
   id="Fill-17"
   fill-rule="evenodd"
   clip-rule="evenodd"
   fill="#2B2B2B"
   d="m 497.727,119.593 8.074,-13.984 h -22.842 l -8.073,13.984 h -18.554 l -4.23,7.329 c 7.039,5.268 14.001,10.666 20.799,16.34 2.343,1.971 4.673,3.968 6.988,5.989 1.92,-2.857 3.852,-5.898 5.81,-9.146 h 15.942 l -9.097,15.757 c -0.673,1.165 -1.326,2.196 -1.976,3.129 1.843,1.774 3.664,3.592 5.443,5.474 -2.705,-0.726 -5.361,-1.527 -7.992,-2.376 -3.01,2.992 -6.37,4.027 -11.558,4.027 l -5.913,-0.095 -11.951,20.699 c 19.073,-0.093 21.898,-0.465 30.418,-3.916 11.056,-4.943 16.832,-10.909 25.968,-26.571 l 21.154,-36.641 h -38.41 z"
   style="fill:#ffffff" />
			<path
   id="Fill-19"
   fill-rule="evenodd"
   clip-rule="evenodd"
   fill="#2B2B2B"
   d="m 327.076,114.61 c -3.241,-3.397 -6.308,-6.945 -9.174,-10.647 -6.095,-7.965 -11.258,-16.735 -14.084,-26.089 -1.435,-4.648 -2.219,-9.459 -1.96,-14.128 0,-1.175 0.223,-2.314 0.346,-3.465 0.265,-1.117 0.418,-2.268 0.816,-3.341 0.624,-2.2 1.658,-4.245 2.874,-6.151 1.162,-1.951 2.751,-3.61 4.403,-5.179 1.706,-1.529 3.634,-2.83 5.666,-3.978 4.117,-2.233 8.738,-3.677 13.485,-4.576 9.536,-1.796 19.573,-1.496 29.399,-0.09 19.724,2.895 38.871,10.049 56.478,19.743 17.559,9.777 33.852,22.206 46.744,37.606 6.361,7.712 11.885,16.255 15.082,25.63 0.993,2.92 1.75,5.925 2.14,8.954 h 3.331 c -0.357,-3.429 -1.137,-6.796 -2.184,-10.04 C 477.181,108.851 471.551,99.913 465.1,91.844 452.025,75.753 435.534,62.806 417.693,52.518 399.827,42.253 380.328,34.5 359.737,31.075 c -10.29,-1.56 -20.913,-2.107 -31.454,-0.162 -5.24,1.036 -10.46,2.684 -15.29,5.351 -2.392,1.371 -4.696,2.951 -6.772,4.843 -2.025,1.932 -3.963,4.026 -5.412,6.467 -1.461,2.413 -2.666,5.01 -3.372,7.734 -0.442,1.34 -0.613,2.733 -0.885,4.103 -0.125,1.381 -0.334,2.764 -0.308,4.142 -0.133,5.535 1.067,10.884 2.828,15.89 3.628,10.029 9.619,18.739 16.335,26.555 2.6,3 5.333,5.867 8.174,8.613"
   style="fill:#ffffff" />
			<g
   transform="translate(181.3363)"
   id="g4">
				<g
   id="Clip-22">
				</g>
				<defs
   id="defs2"><filter
     id="Adobe_OpacityMaskFilter_00000173858670265103470930000011514781769104750237_"
     filterUnits="userSpaceOnUse"
     x="115.777"
     y="0"
     width="151.789"
     height="257.797">
						<feColorMatrix
   type="matrix"
   values="1 0 0 0 0  0 1 0 0 0  0 0 1 0 0  0 0 0 1 0"
   id="feColorMatrix2" />
					</filter></defs>
				
					<mask
   maskUnits="userSpaceOnUse"
   x="115.777"
   y="0"
   width="151.789"
   height="257.797"
   id="mask-4_00000080922488106010235430000005359811352370717845_">
					<g
   filter="url(#Adobe_OpacityMaskFilter_00000173858670265103470930000011514781769104750237_)"
   id="g3">
						
							<polygon
   id="path-3_00000150078002313277041840000005519839679005798285_"
   fill-rule="evenodd"
   clip-rule="evenodd"
   fill="#ffffff"
   points="267.565,257.797 115.777,257.797 115.777,0 267.565,0 " />
					</g>
				</mask>
				
					<path
   id="Fill-21"
   mask="url(#mask-4_00000080922488106010235430000005359811352370717845_)"
   fill-rule="evenodd"
   clip-rule="evenodd"
   fill="#128afa"
   d="m 267.565,0 c -10.904,22.511 -22.64,44.53 -34.67,66.379 -5.936,10.97 -12.174,21.762 -18.271,32.638 l -18.741,32.363 -19.195,32.093 c -6.559,10.604 -12.959,21.302 -19.676,31.812 -13.265,21.12 -26.831,42.061 -41.237,62.512 10.894,-22.517 22.626,-44.54 34.658,-66.387 5.931,-10.973 12.182,-21.759 18.271,-32.638 l 18.752,-32.355 19.206,-32.088 C 213.216,83.723 219.626,73.032 226.338,62.518 239.61,41.402 253.172,20.456 267.565,0" />
			</g>
			<path
   id="Fill-23"
   fill-rule="evenodd"
   clip-rule="evenodd"
   fill="#128afa"
   d="m 494.929,163.919 c -18.256,-9.359 -36.19,-19.254 -54.012,-29.338 -8.941,-4.992 -17.767,-10.178 -26.646,-15.274 L 387.807,103.732 361.516,87.862 C 352.814,82.468 344.052,77.178 335.41,71.682 318.064,60.798 300.833,49.722 283.925,38.103 c 18.259,9.352 36.195,19.245 54.017,29.332 8.943,4.989 17.764,10.183 26.646,15.274 l 26.461,15.583 26.286,15.877 c 8.704,5.391 17.463,10.689 26.104,16.181 17.346,10.885 34.578,21.959 51.49,33.569" />
			<path
   id="Fill-25"
   fill-rule="evenodd"
   clip-rule="evenodd"
   fill="#2B2B2B"
   d="m 355.327,218.505 c 2.972,-0.044 4.155,-0.626 5.489,-2.857 l 1.083,-1.876 c 1.013,-1.83 0.518,-2.366 -2.269,-2.41 h -11.745 l -4.124,7.144 h 11.566 z m -9.991,15.445 c 4.422,0 5.227,-0.313 6.939,-2.812 l 1.443,-2.5 c 1.347,-2.41 0.59,-3.036 -3.803,-3.08 h -10.227 l -4.845,8.392 z m 19.591,-29.6 c 6.996,-0.133 9.293,1.92 7.019,6.252 l -3.172,5.49 c -1.693,2.856 -3.578,4.421 -7.293,5.982 l -0.051,0.09 c 2.623,1.563 2.767,2.857 0.726,6.474 l -3.3,5.713 c -1.411,2.368 -3.775,4.376 -6.636,5.538 -2.395,0.98 -3.118,1.07 -7.517,1.114 h -21.924 l 21.162,-36.654 h 20.986 z"
   style="fill:#ffffff" />
			<polygon
   id="Fill-27"
   fill-rule="evenodd"
   clip-rule="evenodd"
   fill="#2B2B2B"
   points="361.398,241.004 382.585,204.306 390.669,204.306 369.481,241.004 "
   style="fill:#ffffff" />
			<path
   id="Fill-29"
   fill-rule="evenodd"
   clip-rule="evenodd"
   fill="#2B2B2B"
   d="m 399.26,213.013 -10.027,17.366 c -1.887,3.349 -1.796,3.885 0.991,3.929 h 6.477 c 2.168,-0.044 3.167,-0.849 5.015,-3.973 l 10.003,-17.322 h 7.77 l -11.497,19.909 c -3.107,5.538 -7.05,8.038 -12.88,8.083 h -11.12 c -5.838,0.134 -7.009,-2.32 -3.723,-7.858 l 11.625,-20.133 h 7.366 z"
   style="fill:#ffffff" />
			<path
   id="Fill-31"
   fill-rule="evenodd"
   clip-rule="evenodd"
   fill="#2B2B2B"
   d="m 437.269,224.129 0.98,-1.696 c 1.191,-2.143 0.921,-2.679 -1.376,-2.723 h -5.802 c -2.753,0.044 -3.431,0.446 -4.919,2.946 l -0.85,1.473 z m -15.447,6.028 -1.055,1.83 c -0.955,1.963 -0.449,2.322 2.99,2.322 h 16.031 l -3.865,6.696 h -17.371 c -7.068,0.179 -8.807,-2.769 -5.197,-9.018 l 5.851,-10.136 c 3.421,-5.849 7.534,-8.795 12.382,-8.838 h 12.19 c 5.7,0.177 6.513,2.097 3.339,7.901 l -5.335,9.243 z"
   style="fill:#ffffff" />
			<path
   id="Fill-33"
   fill-rule="evenodd"
   clip-rule="evenodd"
   fill="#2B2B2B"
   d="m 470.989,225.425 3.77,-14.958 -13.191,14.958 z m 2.122,-21.074 h 10.983 l -9.015,36.654 h -8.528 l 2.109,-8.527 h -13.172 l -7.514,8.527 h -8.484 z"
   style="fill:#ffffff" />
			<path
   id="Fill-35"
   fill-rule="evenodd"
   clip-rule="evenodd"
   fill="#2B2B2B"
   d="m 507.061,219.709 h -3.841 c -3.2,0.133 -3.939,0.714 -6.189,4.688 l -9.588,16.607 h -8.038 l 10.698,-18.529 c 3.803,-6.741 7.27,-9.42 12.297,-9.462 h 8.528 z"
   style="fill:#ffffff" />
			<path
   id="Fill-37"
   fill-rule="evenodd"
   clip-rule="evenodd"
   fill="#2B2B2B"
   d="M 535.817,219.709 H 523.67 c -4.086,0.044 -4.996,0.534 -6.947,3.839 l -3.534,6.116 c -1.34,2.322 -1.76,3.125 -1.773,3.305 -0.007,1.249 0.146,1.294 3.424,1.339 h 12.547 l -3.865,6.696 h -16.925 c -5.636,-0.134 -6.39,-2.232 -3.088,-8.258 l 6.778,-11.743 c 3.28,-5.759 6.564,-7.814 12.696,-7.991 h 16.699 z"
   style="fill:#ffffff" />
			<path
   id="Fill-39"
   fill-rule="evenodd"
   clip-rule="evenodd"
   fill="#2B2B2B"
   d="m 549.933,204.306 h 7.722 l -5.001,8.663 h 11.967 c 5.987,0.223 6.48,2.545 2.214,9.777 l -10.54,18.259 h -7.725 l 9.562,-16.562 c 2.351,-4.152 2.284,-4.734 -0.859,-4.779 h -8.484 l -12.323,21.341 h -7.722 z"
   style="fill:#ffffff" />
			<path
   id="Fill-41"
   fill-rule="evenodd"
   clip-rule="evenodd"
   fill="#2B2B2B"
   d="m 590.856,205.422 -3.223,5.581 h -7.86 l 3.223,-5.581 z m -12.242,7.591 h 7.86 l -16.162,27.992 h -7.86 z"
   style="fill:#ffffff" />
			<polygon
   id="Fill-43"
   fill-rule="evenodd"
   clip-rule="evenodd"
   fill="#2B2B2B"
   points="599.242,213.013 593.096,234.175 611.521,213.013 620.318,213.013 594.422,241.005 584.242,241.005 590.981,213.013 "
   style="fill:#ffffff" />
			<path
   id="Fill-45"
   fill-rule="evenodd"
   clip-rule="evenodd"
   fill="#2B2B2B"
   d="m 636.536,224.129 0.98,-1.696 c 1.191,-2.143 0.919,-2.679 -1.375,-2.723 h -5.805 c -2.749,0.044 -3.428,0.446 -4.915,2.946 l -0.852,1.473 z m -15.447,6.028 -1.057,1.83 c -0.954,1.963 -0.447,2.322 2.992,2.322 h 16.031 l -3.867,6.696 h -17.371 c -7.067,0.179 -8.803,-2.769 -5.197,-9.018 l 5.854,-10.136 c 3.419,-5.849 7.532,-8.795 12.38,-8.838 h 12.19 c 5.702,0.177 6.513,2.097 3.341,7.901 l -5.336,9.243 z"
   style="fill:#ffffff" />
		</g>
	</g>
</g>















</svg>
